<svg data-v-0dd9719b="" version="1.0" xmlns="http://www.w3.org/2000/svg" xmlns:xlink="http://www.w3.org/1999/xlink" width="100%" height="100%" viewBox="0 0 340.000000 250.000000" preserveAspectRatio="xMidYMid meet" color-interpolation-filters="sRGB" style="margin: auto;"> <rect data-v-0dd9719b="" x="0" y="0" width="100%" height="100%" fill="#fff" fill-opacity="0" class="background"></rect> <rect data-v-0dd9719b="" x="0" y="0" width="100%" height="100%" fill="url(#watermark)" fill-opacity="1" class="watermarklayer"></rect> <g data-v-0dd9719b="" fill="#0ca579" class="icon-text-wrapper icon-svg-group iconsvg" transform="translate(80.28500366210938,81.14349365234375)"><g class="iconsvg-imagesvg" transform="matrix(1,0,0,1,59.714996337890625,0)" opacity="1"><g><rect fill="#0ca579" fill-opacity="0" stroke-width="2" x="0" y="0" width="60" height="56.93301830396538" class="image-rect"></rect> <svg x="0" y="0" width="60" height="56.93301830396538" filtersec="colorsb7969241784" class="image-svg-svg primary" style="overflow: visible;"><svg xmlns="http://www.w3.org/2000/svg" viewBox="0 0 67.0999984741211 63.66999816894531"><g><g><path fill="#0ca579" d="M0 63.67h44.42L67.1 31.83 44.42 0 0 63.67z"></path><path fill="#00ea90" d="M0 0h44.42L67.1 31.83 44.42 63.67 0 0z"></path></g></g></svg></svg> <!----></g></g> <g transform="translate(0,63.93301773071289)"><g data-gra="path-name" fill-rule="" class="tp-name iconsvg-namesvg" opacity="1" transform="matrix(1,0,0,1,0,0)"><g transform="scale(1)"><g><path d="M28.71-21.04L22.36-21.04 22.36-20.74C23.6-20.38 24.17-19.84 24.17-18.49 24.17-17.95 24.08-17.28 23.9-16.44L20.89-4.42 17.98-19.99 13.74-19.12 10.58-4.21 7.3-17.04C7.18-17.56 7.12-18.01 7.12-18.4 7.12-19.66 7.76-20.38 8.96-20.74L8.96-21.04 0.3-21.04 0.3-20.74C1.8-20.26 2.19-19.48 2.95-16.65L7.52 0.57 11.6-0.3 14.73-13.83 17.43 0.57 21.67-0.33 25.94-16.26C26.96-19.66 27.14-20.26 28.71-20.74ZM44.58-3.46L38.96-22 32.22-21.04 32.22-20.74C33.37-20.38 33.91-19.9 33.91-18.73 33.91-18.19 33.79-17.53 33.58-16.65L29.58-3.43C28.83-1.2 28.41-0.72 27.05-0.3L27.05 0 33.4 0 33.4-0.3C32.25-0.66 31.71-1.14 31.71-2.31 31.71-3.37 31.86-3.64 32.77-6.7 33.34-6.04 34.6-4.81 35.86-4.81 37.36-4.81 38.57-6.16 39.08-6.79 39.95-3.76 40.13-3.37 40.13-2.31 40.13-1.14 39.59-0.66 38.45-0.3L38.45 0 47.1 0 47.1-0.3C45.75-0.72 45.33-1.2 44.58-3.46ZM35.86-7.21C35.23-7.21 33.67-7.15 32.89-7.12L35.92-17.13 38.96-7.09C38.24-7.15 36.52-7.21 35.86-7.21ZM47.4-10.1C47.4-4.42 51.46 0.18 56.9 0.18 62.59 0.18 67.06-5.08 67.06-11.12 67.06-16.8 63.01-21.4 57.57-21.4 51.88-21.4 47.4-16.14 47.4-10.1ZM57.63-0.78C54.32-0.78 52.39-6.82 52.39-11.36 52.39-16.35 54.29-20.41 56.84-20.41 60.12-20.41 62.04-14.34 62.04-9.83 62.04-4.81 60.15-0.78 57.63-0.78ZM81.91-21.04L73.68-21.04 73.68-20.71C75.75-20.08 75.75-19.6 75.75-15.9L75.75-5.14C75.75-1.44 75.75-0.96 73.68-0.33L73.68 0 82.03 0 82.03-0.33C79.96-0.96 79.96-1.44 79.96-5.14L79.96-18.55C79.96-19.54 80.53-20.08 81.52-20.08L81.97-20.08C83.84-20.05 85.97-18.64 85.97-14.64 85.97-10.76 83.3-8.75 81.25-8.75 80.89-8.75 80.59-8.81 80.29-8.93 81.19-8.3 82.36-8 83.63-8 86.9-8 90.6-10.22 90.6-14.94 90.6-20.56 85.34-21.07 81.91-21.04ZM97.58-12.05L97.58-15.69C95.65-14.37 93.61-13.59 91.65-13.29L91.65-12.96C93.61-12.32 93.67-11.87 93.79-9.02 93.82-7.91 93.85-6.52 93.85-5.2 93.85-4.27 93.82-3.34 93.82-2.53 93.76-1.14 93.43-0.75 92.01-0.33L92.01 0 99.35 0 99.35-0.33C97.76-0.81 97.55-1.23 97.55-3.1 97.55-3.67 97.58-4.33 97.58-5.17L97.58-9.95C97.94-11.39 98.45-12.38 99.59-12.38 100.46-12.38 101.12-11.42 101.15-10.28L103.77-14.97C103.02-15.24 102.32-15.36 101.72-15.36 99.11-15.36 97.85-13.14 97.58-12.05ZM103.62-7.09C103.62-3.13 106.26 0.36 110.32 0.36 114.5 0.36 117.78-3.25 117.78-7.7 117.78-11.72 114.83-15.27 110.92-15.27 106.89-15.27 103.62-11.48 103.62-7.09ZM110.8-0.9C108.85-0.9 107.74-4.69 107.74-8.15 107.74-11.21 108.7-14.04 110.56-14.04 112.52-14.04 113.6-10.22 113.6-6.76 113.6-3.73 112.67-0.9 110.8-0.9ZM124.33-2.49L124.33-5.59C124.33-7.39 124.33-9.56 124.39-11.81 126.01-12.02 127.39-12.93 127.97-13.65 127.97-13.65 125.83-13.8 124.45-13.86 124.54-16.44 124.72-19.15 124.99-20.74L119.82-18.64C120.12-17.62 120.3-15.72 120.36-13.62 119.79-13.56 119.28-13.44 118.98-13.35 118.98-13.35 119.28-12.78 120.42-12.29 120.45-11.12 120.45-9.89 120.45-8.57 120.45-6.73 120.45-4.75 120.42-2.49 120.42-1.86 121.11 0.21 124.45 0.21 125.86 0.21 126.94-0.45 127.82-2.13L127.03-3.52C126.7-2.01 125.77-0.96 125.11-0.96 124.66-0.96 124.33-1.41 124.33-2.49ZM128.87-7.09C128.87-3.13 131.51 0.36 135.57 0.36 139.75 0.36 143.03-3.25 143.03-7.7 143.03-11.72 140.08-15.27 136.17-15.27 132.14-15.27 128.87-11.48 128.87-7.09ZM136.05-0.9C134.1-0.9 132.99-4.69 132.99-8.15 132.99-11.21 133.95-14.04 135.81-14.04 137.77-14.04 138.85-10.22 138.85-6.76 138.85-3.73 137.92-0.9 136.05-0.9ZM151.65-15.36C147.44-15.36 144.38-11.54 144.38-6.94 144.38-2.62 147.11 0.54 151.38 0.54 154.09 0.54 155.92-1.02 156.64-3.04L155.95-3.76C154.99-1.95 153.73-1.35 152.62-1.35 149.94-1.35 148.62-4.66 148.62-8.09 148.62-11.21 149.76-13.68 151.56-13.68 152.86-13.68 154.24-12.23 154.24-10.31 154.24-10.07 154.21-9.86 154.18-9.62L156.61-12.44C156.25-14.07 153.64-15.36 151.65-15.36ZM157.24-7.09C157.24-3.13 159.89 0.36 163.95 0.36 168.13 0.36 171.4-3.25 171.4-7.7 171.4-11.72 168.46-15.27 164.55-15.27 160.52-15.27 157.24-11.48 157.24-7.09ZM164.43-0.9C162.47-0.9 161.36-4.69 161.36-8.15 161.36-11.21 162.32-14.04 164.19-14.04 166.14-14.04 167.22-10.22 167.22-6.76 167.22-3.73 166.29-0.9 164.43-0.9ZM177.96-2.13L177.93-23.21C176-21.88 173.96-21.1 172-20.8L172-20.47C173.96-19.84 174.02-19.36 174.14-15.63 174.23-12.96 174.26-10.31 174.26-7.88 174.26-5.8 174.23-3.91 174.2-2.37 174.17-1.08 173.78-0.75 172.39-0.33L172.39 0 179.73 0 179.73-0.33C178.44-0.72 178.08-1.05 177.96-2.13Z" transform="translate(-0.30000001192092896, 23.209999084472656)"></path></g> <!----> <!----> <!----> <!----> <!----> <!----> <!----></g></g> <!----></g></g><defs v-gra="od"></defs></svg>
